<svg xmlns="http://www.w3.org/2000/svg" viewBox="0 0 128 128" width="128" height="128">

<path d="M56 94
         Q48 90 48 82
         L48 62
         Q48 58 52 58
         Q56 58 56 62
         L56 44
         Q56 40 60 40
         Q64 40 64 44
         L64 54
         L66 38
         Q66 34 70 34
         Q74 34 74 38
         L74 54
         L76 42
         Q76 38 80 38
         Q84 38 84 42
         L84 62
         L88 56
         Q91 52 95 54
         Q99 56 96 62
         L88 78
         Q84 90 72 94 Z" fill="#2B3642"/>
<rect x="30" y="44" width="14" height="4" rx="2" fill="#2B3642"/>
<path d="M36 38 L44 46 L36 54" fill="none" stroke="#2B3642" stroke-width="4" stroke-linecap="round" stroke-linejoin="round"/>
<rect x="84" y="44" width="14" height="4" rx="2" fill="#2B3642"/>
<path d="M92 38 L84 46 L92 54" fill="none" stroke="#2B3642" stroke-width="4" stroke-linecap="round" stroke-linejoin="round"/>
<rect x="62" y="18" width="4" height="14" rx="2" fill="#2B3642"/>
<path d="M56 26 L64 18 L72 26" fill="none" stroke="#2B3642" stroke-width="4" stroke-linecap="round" stroke-linejoin="round"/>

</svg>
